<svg width="32" height="32" viewBox="0 0 32 32" xmlns="http://www.w3.org/2000/svg">
    <path d="M16 0c8.837 0 16 7.163 16 16s-7.163 16-16 16S0 24.837 0 16 7.163 0 16 0zm3.63 8a4.04 4.04 0 0 0-3.934 4.96 11.467 11.467 0 0 1-8.325-4.22 4.037 4.037 0 0 0 1.25 5.393 4.023 4.023 0 0 1-1.83-.506v.05a4.042 4.042 0 0 0 3.24 3.961 4.044 4.044 0 0 1-1.824.07 4.043 4.043 0 0 0 3.773 2.804A8.104 8.104 0 0 1 6 22.185 11.432 11.432 0 0 0 12.192 24c7.43 0 11.492-6.155 11.492-11.493 0-.175-.004-.349-.011-.522a8.207 8.207 0 0 0 2.015-2.091 8.074 8.074 0 0 1-2.32.636 4.051 4.051 0 0 0 1.776-2.235 8.086 8.086 0 0 1-2.565.98A4.033 4.033 0 0 0 19.631 8z" fill="#8989B5" fill-rule="evenodd"/>
</svg>
