<svg width="32" height="32" viewBox="0 0 32 32" xmlns="http://www.w3.org/2000/svg">
    <path d="M16 0c8.837 0 16 7.163 16 16s-7.163 16-16 16S0 24.837 0 16 7.163 0 16 0zm.063 8h-.475c-1.254.006-7.11.051-8.703.47a2.922 2.922 0 0 0-2.014 2.034C4.4 12.292 4.4 16 4.4 16s0 3.727.47 5.496a2.863 2.863 0 0 0 2.015 2.015c1.807.489 8.94.489 8.94.489s7.154 0 8.942-.47a2.863 2.863 0 0 0 2.014-2.015c.427-1.62.467-4.818.47-5.403v-.33c-.005-.848-.055-3.761-.47-5.278a2.863 2.863 0 0 0-2.014-2.015c-1.594-.436-7.45-.483-8.704-.488zM12.4 11.6l7.435 4.282-7.435 4.283V11.6z" fill="#8989B5" fill-rule="evenodd"/>
</svg>
